# xmcd
#
# Track frame offsets:
#	150
#	18960
#	36216
#	53964
#	74043
#	91814
#	112687
#	131048
#	150365
#	170932
#	187706
#	207889
#	228378
#	248765
#	271518
#	292477
#	312068
#
# Disc length: 4425 seconds
#
# Revision: 8
# Processed by: cddbd v1.5.2PL0 Copyright (c) Steve Scherf et al.
# Submitted via: EasyCDDAExtractor 16.0.9.1
#
DISCID=e6114711
DTITLE=Various Artist - 연가
DYEAR=1900
DGENRE=Blues
TTITLE0=김민우 - 사랑일뿐야
TTITLE1=김민우 - 입영열차 안에서
TTITLE2=변진섭 - 홀로된다는 것
TTITLE3=윤상 - 이별의 그늘
TTITLE4=윤상 - 가려진 시간 사이로
TTITLE5=이신 - 애상
TTITLE6=이상우 - 비창
TTITLE7=전유나 - 너를 사랑하고도
TTITLE8=나미 - 슬픈인연
TTITLE9=신성우 - 서시
TTITLE10=김돈규 - 나만의 슬픔
TTITLE11=부활 - 사랑할 수록
TTITLE12=이지훈 - 왜 하늘은
TTITLE13=솔리드 - 이밤의 끝을 잡고
TTITLE14=박상민 - 멀어져간 사람아
TTITLE15=조장혁 - Change
TTITLE16=김태영 - 혼자만의 사랑
EXTD=
EXTT0=
EXTT1=
EXTT2=
EXTT3=
EXTT4=
EXTT5=
EXTT6=
EXTT7=
EXTT8=
EXTT9=
EXTT10=
EXTT11=
EXTT12=
EXTT13=
EXTT14=
EXTT15=
EXTT16=
PLAYORDER=
